<?xml version="1.0" encoding="UTF-8" standalone="no" ?>
<!DOCTYPE svg PUBLIC "-//W3C//DTD SVG 1.1//EN" "http://www.w3.org/Graphics/SVG/1.1/DTD/svg11.dtd">
<svg xmlns="http://www.w3.org/2000/svg" xmlns:xlink="http://www.w3.org/1999/xlink" version="1.1" width="1080" height="1080" viewBox="0 0 1080 1080" xml:space="preserve">
<desc>Created with Fabric.js 5.2.4</desc>
<defs>
</defs>
<rect x="0" y="0" width="100%" height="100%" fill="transparent"></rect>
<g transform="matrix(1 0 0 1 540 540)" id="aeae9b94-8c07-4d8e-b4d4-8989d730c751"  >
<rect style="stroke: none; stroke-width: 1; stroke-dasharray: none; stroke-linecap: butt; stroke-dashoffset: 0; stroke-linejoin: miter; stroke-miterlimit: 4; fill: rgb(255,255,255); fill-rule: nonzero; opacity: 1; visibility: hidden;" vector-effect="non-scaling-stroke"  x="-540" y="-540" rx="0" ry="0" width="1080" height="1080" />
</g>
<g transform="matrix(1 0 0 1 540 540)" id="4c285dff-95dc-41eb-bc8b-9862ade40431"  >
</g>
<g transform="matrix(25.87 0 0 24.46 540.06 540.02)"  >
<g style=""   >
		<g transform="matrix(1 0 0 1 0 0)"  >
<path style="stroke: none; stroke-width: 1; stroke-dasharray: none; stroke-linecap: butt; stroke-dashoffset: 0; stroke-linejoin: miter; stroke-miterlimit: 10; fill: rgb(62,99,249); fill-rule: nonzero; opacity: 1;" vector-effect="non-scaling-stroke"  transform=" translate(-24, -24)" d="M 7 8 L 41 8 C 43.21 8 45 9.791 45 12 L 45 36 C 45 38.209 43.21 40 41 40 L 7 40 C 4.791 40 3 38.209 3 36 L 3 12 C 3 9.791 4.791 8 7 8" stroke-linecap="round" />
</g>
		<g transform="matrix(1 0 0 1 -0.71 0)"  >
<path style="stroke: none; stroke-width: 1; stroke-dasharray: none; stroke-linecap: butt; stroke-dashoffset: 0; stroke-linejoin: miter; stroke-miterlimit: 10; fill: rgb(255,255,255); fill-rule: nonzero; opacity: 1;" vector-effect="non-scaling-stroke"  transform=" translate(-23.29, -24)" d="M 17.038 28.725 L 12.746 28.725 L 11.909 32 L 8.581000000000001 32 L 13.451 16 L 16.331 16 L 21.233999999999998 32 L 17.872999999999998 32 z M 13.431 26.033 L 16.343 26.033 L 14.887 20.330000000000002 z M 26 26.374 L 26 32 L 23 32 L 23 16 L 28 16 C 29.542 16 30.771 16.491 31.689 17.473 C 32.605 18.454 33 19.729 33 21.296999999999997 C 33 22.865 32.61 24.102999999999998 31.705 25.010999999999996 C 30.798 25.918999999999997 29.541999999999998 26.373999999999995 27.936999999999998 26.373999999999995 z M 26 23.681 L 28.116 23.681 C 28.715 23.681 29.179 23.48 29.509 23.077 C 29.836000000000002 22.674000000000003 30 22.088 30 21.319000000000003 C 30 20.520000000000003 29.833 19.885 29.497 19.412000000000003 C 29.162 18.94 28.712 18.700000000000003 28.148 18.692000000000004 L 26 18.692000000000004 z M 38 32 L 35 32 L 35 16 L 38 16 z" stroke-linecap="round" />
</g>
</g>
</g>
</svg>